<?xml version="1.0" standalone="no"?>
<!DOCTYPE svg PUBLIC "-//W3C//DTD SVG 20010904//EN"
 "http://www.w3.org/TR/2001/REC-SVG-20010904/DTD/svg10.dtd">
<svg version="1.0" xmlns="http://www.w3.org/2000/svg"
 width="1024.000000pt" height="1024.000000pt" viewBox="0 0 1024.000000 1024.000000"
 preserveAspectRatio="xMidYMid meet">

<g transform="translate(0.000000,1024.000000) scale(0.100000,-0.100000)"
fill="#00a3e4" stroke="none">
<path d="M5014 8661 c-42 -19 -76 -57 -110 -121 -18 -32 -19 -70 -24 -478 l-5
-442 -160 161 c-88 88 -177 169 -197 180 -80 41 -192 13 -244 -62 -39 -57 -46
-149 -15 -212 15 -30 114 -136 321 -341 l300 -297 0 -503 0 -503 -69 -47 c-91
-63 -140 -80 -193 -66 -44 12 -114 77 -540 500 l-238 235 -2 431 -3 431 -30
48 c-84 135 -280 124 -346 -20 -16 -35 -19 -68 -19 -283 0 -134 -4 -242 -9
-240 -4 2 -146 138 -315 303 -317 311 -360 345 -436 345 -155 0 -260 -146
-215 -298 15 -49 36 -73 355 -389 187 -186 340 -341 340 -345 0 -4 -126 -8
-280 -8 -308 0 -325 -3 -373 -59 -72 -87 -53 -221 40 -283 26 -17 60 -18 513
-18 l485 0 195 -192 c107 -105 270 -266 363 -356 l167 -165 0 -46 c0 -50 -33
-114 -81 -158 l-25 -22 -524 -4 -525 -4 -90 86 c-49 47 -184 179 -300 292
-115 114 -224 214 -242 223 -92 46 -233 -8 -264 -102 -15 -45 -14 -133 1 -164
7 -12 83 -94 169 -181 l156 -159 -340 5 c-187 3 -384 2 -439 -3 -86 -7 -103
-12 -135 -37 -46 -37 -91 -124 -91 -176 0 -93 46 -169 127 -209 47 -23 54 -23
451 -28 l403 -5 -145 -144 c-150 -149 -169 -176 -169 -251 0 -58 21 -106 63
-144 69 -62 163 -69 240 -17 21 14 162 146 313 294 l275 267 539 0 539 0 36
-37 c20 -21 41 -48 47 -60 17 -33 13 -105 -7 -133 -9 -14 -105 -111 -212 -215
-107 -104 -261 -254 -341 -332 l-146 -143 -457 0 c-311 0 -472 -4 -503 -11
-156 -40 -178 -263 -33 -336 43 -22 54 -23 325 -24 l280 0 -337 -332 c-185
-183 -344 -347 -353 -365 -19 -39 -22 -143 -6 -185 44 -114 180 -176 287 -131
56 23 61 28 384 347 l295 292 5 -250 c5 -236 6 -252 28 -292 30 -58 89 -95
157 -101 70 -6 145 33 181 93 l24 41 6 435 6 434 177 173 c430 423 558 540
600 552 56 15 103 1 190 -57 l71 -47 0 -510 0 -510 -296 -289 c-162 -160 -306
-309 -320 -332 -17 -31 -24 -56 -24 -97 0 -149 148 -247 275 -181 22 12 112
94 200 183 l160 161 5 -428 c5 -408 6 -430 26 -473 49 -107 126 -156 226 -147
113 10 196 88 218 206 6 31 10 223 10 450 l0 396 168 -167 c92 -91 181 -173
199 -182 90 -45 226 11 262 107 17 45 13 117 -10 163 -14 30 -114 134 -320
335 l-299 292 0 513 0 512 50 37 c53 39 135 75 171 75 58 0 98 -35 726 -644
l92 -89 3 -442 3 -441 25 -37 c31 -46 109 -87 164 -87 77 1 160 58 188 129 5
14 12 134 15 266 2 132 6 241 7 242 1 2 141 -133 310 -300 211 -207 323 -309
354 -325 93 -46 221 -9 279 80 22 32 28 56 31 109 7 111 1 118 -369 483 -181
179 -329 327 -329 330 0 3 123 6 274 6 170 0 285 4 303 11 105 39 145 182 79
278 -54 77 -42 76 -574 79 l-472 3 -123 117 c-308 294 -573 555 -584 575 -28
51 -7 137 49 195 l32 32 535 0 536 0 130 -128 c444 -435 458 -448 505 -460 57
-14 131 -1 181 32 41 27 70 81 77 142 9 80 -9 108 -172 266 l-151 148 385 0
c226 0 404 5 430 11 90 20 152 85 171 180 21 98 -27 190 -125 242 -40 21 -52
22 -459 25 l-418 4 113 106 c164 155 195 189 214 238 61 160 -111 317 -274
249 -24 -11 -135 -114 -328 -306 l-290 -290 -524 1 -524 0 -24 23 c-51 46 -82
108 -82 161 l0 51 217 213 c120 117 284 276 365 353 l148 140 463 -2 c506 -1
504 -1 559 57 51 55 62 128 29 199 -22 48 -44 69 -94 90 -30 12 -87 15 -315
15 l-279 0 330 328 c181 180 342 347 358 371 75 116 2 292 -137 331 -50 14
-120 8 -162 -14 -15 -8 -167 -154 -339 -324 l-312 -310 -3 252 c-3 239 -4 253
-26 293 -12 24 -41 55 -64 70 -36 24 -52 28 -112 28 -84 0 -122 -19 -164 -79
l-27 -39 -3 -442 -3 -442 -369 -361 c-409 -400 -407 -399 -495 -369 -25 9 -75
37 -111 62 l-64 46 0 508 0 509 298 292 c163 161 307 309 319 329 41 65 26
179 -30 240 -50 54 -151 76 -220 47 -19 -7 -101 -84 -192 -180 -88 -91 -163
-166 -167 -166 -4 0 -8 185 -8 412 0 349 -2 420 -16 469 -20 70 -71 134 -128
160 -54 25 -148 24 -202 0z m299 -3059 c67 -33 142 -52 208 -52 l39 0 0 -57
c0 -117 43 -223 127 -313 l54 -58 -49 -49 c-79 -79 -132 -213 -132 -333 0 -56
10 -50 -114 -68 -100 -15 -188 -62 -264 -140 l-62 -64 -65 64 c-90 91 -175
130 -332 153 l-43 7 0 52 c0 112 -48 229 -132 322 -27 28 -48 54 -48 58 0 3
20 24 45 47 73 67 135 219 135 331 l0 48 43 0 c110 0 247 61 336 151 l56 56
67 -62 c37 -34 96 -76 131 -93z"/>
<path d="M4298 6990 c-108 -32 -169 -146 -138 -258 25 -93 130 -163 223 -148
122 20 206 137 177 248 -32 123 -148 193 -262 158z"/>
<path d="M5815 6988 c-125 -44 -178 -193 -109 -305 33 -54 87 -89 150 -99 85
-12 198 66 225 155 10 33 10 53 0 97 -27 118 -154 191 -266 152z"/>
<path d="M3214 5952 c-50 -24 -78 -58 -100 -124 -59 -180 136 -340 299 -245
53 31 80 65 97 124 25 82 -5 164 -83 227 -33 26 -48 31 -105 34 -50 2 -77 -2
-108 -16z"/>
<path d="M6840 5954 c-77 -33 -120 -101 -120 -189 0 -66 16 -109 56 -149 111
-111 311 -56 353 97 25 88 -23 198 -103 237 -51 24 -135 26 -186 4z"/>
<path d="M3208 4650 c-42 -23 -72 -61 -93 -121 -22 -60 -19 -98 13 -160 45
-89 131 -131 225 -108 67 16 140 85 157 148 25 94 -21 200 -102 240 -58 27
-148 28 -200 1z"/>
<path d="M6835 4654 c-75 -39 -115 -105 -115 -189 0 -106 67 -186 177 -210 79
-16 187 44 221 125 43 102 -12 242 -111 279 -42 16 -137 13 -172 -5z"/>
<path d="M4330 3643 c-107 -18 -180 -100 -180 -203 0 -119 117 -224 228 -206
174 28 245 211 131 340 -30 34 -53 50 -92 61 -28 8 -53 14 -56 14 -3 -1 -17
-4 -31 -6z"/>
<path d="M5840 3640 c-102 -19 -163 -94 -163 -200 0 -238 330 -285 403 -57 35
110 -53 244 -170 259 -19 3 -51 2 -70 -2z"/>
</g>
</svg>
